<svg width="18" height="19" fill="#174430" xmlns="http://www.w3.org/2000/svg">
  <path d="M12.28 2.94a3.3 3.3 0 013.28 3.28v6.56a3.3 3.3 0 01-3.28 3.28H5.72a3.3 3.3 0 01-3.28-3.28V6.22a3.3 3.3 0 013.28-3.28h6.56zm0-1.31H5.72a4.6 4.6 0 00-4.6 4.59v6.56a4.6 4.6 0 004.6 4.6h6.56a4.6 4.6 0 004.6-4.6V6.22a4.6 4.6 0 00-4.6-4.6z" fill="#fff"/>
  <path d="M12.28 2.94a3.3 3.3 0 013.28 3.28v6.56a3.3 3.3 0 01-3.28 3.28H5.72a3.3 3.3 0 01-3.28-3.28V6.22a3.3 3.3 0 013.28-3.28h6.56z" fill="#fff"/>
  <path d="M13.27 6.22a.98.98 0 110-1.97.98.98 0 010 1.97zM9 6.88a2.63 2.63 0 110 5.25 2.63 2.63 0 010-5.25zm0-1.32a3.94 3.94 0 100 7.88 3.94 3.94 0 000-7.88z"/>
</svg>