<svg width="18" height="18" fill="none" xmlns="http://www.w3.org/2000/svg">
  <path d="M12.2811 2.4374a3.2913 3.2913 0 013.2815 3.2815v6.5622a3.291 3.291 0 01-3.2815 3.2815H5.7189a3.291 3.291 0 01-3.2815-3.2815V5.7189a3.2913 3.2913 0 013.2815-3.2815h6.5622zm0-1.3124H5.7189c-2.5267 0-4.5939 2.0672-4.5939 4.5939v6.5622c0 2.5267 2.0672 4.5939 4.5939 4.5939h6.5622c2.5267 0 4.5939-2.0672 4.5939-4.5939V5.7189c0-2.5267-2.0672-4.5939-4.5939-4.5939z" fill="#174430" fill-opacity=".5"/>
  <path d="M12.2811 2.4374a3.2913 3.2913 0 013.2815 3.2815v6.5622a3.291 3.291 0 01-3.2815 3.2815H5.7189a3.291 3.291 0 01-3.2815-3.2815V5.7189a3.2913 3.2913 0 013.2815-3.2815h6.5622z" fill="#174430" fill-opacity=".5"/>
  <path d="M13.2655 5.719a.9845.9845 0 11.9844-.9844.9813.9813 0 01-.2877.6966.9824.9824 0 01-.6967.2877zM9 6.375A2.625 2.625 0 116.3749 9 2.628 2.628 0 019 6.375zm0-1.3124a3.9376 3.9376 0 100 7.8751 3.9376 3.9376 0 000-7.8751z" fill="#fff"/>
</svg>