<svg width="16" height="17" fill="#174430" xmlns="http://www.w3.org/2000/svg"><path d="M12.75 16.38c-.69 0-1.65-.25-3.1-1.06a20.11 20.11 0 01-4.86-3.63 18.44 18.44 0 01-3.65-4.86C-.16 4.47.07 3.23.32 2.7c.3-.63.72-1 1.29-1.38A6.2 6.2 0 012.7.75c.17-.08.44-.2.77-.07.22.08.42.26.73.56.64.63 1.52 2.04 1.84 2.73.21.46.36.77.36 1.11 0 .4-.2.71-.45 1.05l-.14.18c-.26.35-.32.45-.28.63.07.37.66 1.45 1.62 2.41a6.4 6.4 0 002.38 1.59c.19.04.3-.02.66-.3l.16-.12c.37-.28.67-.48 1.06-.48.35 0 .64.15 1.12.4.64.31 2.08 1.18 2.72 1.82.3.3.48.5.56.73.13.33 0 .6-.07.77l-.04.1a6.2 6.2 0 01-.54 1c-.37.56-.75 1-1.38 1.29-.33.15-.68.23-1.04.23z" /></svg>